<?xml version="1.0" encoding="UTF-8"?>
<svg version="1.1" xmlns="http://www.w3.org/2000/svg" width="512" height="512">
<path d="M0 0 C1.52275229 0.41304367 1.52275229 0.41304367 3.07626724 0.83443165 C6.41710986 1.74447998 9.75157039 2.67593944 13.08642578 3.60766602 C15.45852586 4.25831767 17.83100163 4.90760104 20.2038269 5.55560303 C25.86966681 7.10649607 31.53159959 8.67102433 37.19178617 10.24241459 C43.68299787 12.0438892 50.17842013 13.82993371 56.67426968 15.61459982 C65.04266663 17.91386044 73.41020258 20.21620249 81.77514648 22.52799988 C95.15414474 26.22551391 108.53859966 29.89937927 121.94377518 33.50089836 C124.21956196 34.11258533 126.49492326 34.72582621 128.77011108 35.33973694 C129.48253527 35.53196303 130.19495945 35.72418913 130.92897224 35.92224026 C132.30711049 36.29414412 133.68523763 36.66608911 135.06335258 37.03807926 C138.2788917 37.90542365 141.49551492 38.76837328 144.71380615 39.62545776 C148.15068493 40.5418803 151.5837324 41.47143933 155.01611328 42.40454102 C155.97935516 42.65733826 156.94259705 42.9101355 157.93502808 43.17059326 C164.70709981 45.03230074 170.36473005 47.2835516 174.3247509 53.46723461 C176.11456612 57.67688717 175.69913462 62.30110807 175.65844727 66.80004883 C175.66655174 68.50899071 175.66655174 68.50899071 175.67481995 70.25245667 C175.6873328 74.02346745 175.67077727 77.79371744 175.65283203 81.56469727 C175.65298717 84.20668579 175.65447864 86.84867454 175.65724182 89.49066162 C175.65994423 95.04228481 175.64649193 100.59369199 175.62329102 106.14526367 C175.59694319 112.49223 175.59484941 118.83882937 175.60667938 125.18583131 C175.61762585 131.34955761 175.61112401 137.51315588 175.5971241 143.67687225 C175.59266928 146.26783626 175.59221927 148.8588109 175.5961895 151.4497757 C175.61413524 173.50462718 174.14337885 195.32293559 169.46923828 216.92407227 C169.21577637 218.11709961 168.96231445 219.31012695 168.70117188 220.53930664 C157.22112577 272.68502294 132.49677288 325.6548907 95.60595703 364.79907227 C93.65404375 366.89107501 91.77736018 369.011551 89.91064453 371.17797852 C79.99316407 382.55606975 69.09683011 393.19378851 57.15673828 402.42407227 C55.99660342 403.37013261 54.83923751 404.31959466 53.68408203 405.27172852 C45.19178101 412.24282123 36.44586333 418.55920271 27.15673828 424.42407227 C26.58052734 424.79064941 26.00431641 425.15722656 25.41064453 425.53491211 C21.05905396 428.28425888 16.62970845 430.87786073 12.15673828 433.42407227 C10.81603271 434.19630127 10.81603271 434.19630127 9.44824219 434.98413086 C6.47134326 436.68230849 3.47398073 438.33823147 0.46923828 439.98657227 C-0.46855469 440.5239502 -1.40634766 441.06132812 -2.37255859 441.61499023 C-9.91559892 445.66456447 -16.9123523 447.19855876 -25.29370117 444.69091797 C-27.67465128 443.68960281 -29.89620759 442.54987986 -32.15576172 441.29907227 C-32.99333008 440.8567627 -33.83089844 440.41445313 -34.69384766 439.95874023 C-50.57900128 431.425659 -65.8886434 422.01743668 -80.04638672 410.83569336 C-81.81763783 409.44420233 -83.6078721 408.08168596 -85.40576172 406.72485352 C-94.4341738 399.86040014 -102.70750527 392.31721172 -110.84326172 384.42407227 C-111.52775391 383.76149414 -112.21224609 383.09891602 -112.91748047 382.41625977 C-121.09304726 374.46737228 -128.85231977 366.45296408 -135.84326172 357.42407227 C-136.66568359 356.41860352 -137.48810547 355.41313477 -138.33544922 354.37719727 C-181.13530645 301.83652021 -208.85109845 232.26349322 -209.02026367 164.16308594 C-209.02683487 162.99093536 -209.03340607 161.81878479 -209.04017639 160.6111145 C-209.05972825 156.77142253 -209.07152408 152.9317691 -209.08154297 149.09204102 C-209.0856185 147.77467768 -209.08969402 146.45731434 -209.09389305 145.1000309 C-209.11286812 138.85621279 -209.12712602 132.61240607 -209.13550502 126.36856478 C-209.14530893 119.18510286 -209.17174198 112.00194644 -209.21200591 104.81859225 C-209.24217452 99.24379795 -209.25697377 93.66909145 -209.26028603 88.09421712 C-209.2626316 84.77296702 -209.27351862 81.45212085 -209.29674721 78.13094139 C-209.32102748 74.43307151 -209.32019478 70.73601069 -209.31323242 67.03808594 C-209.32604248 65.94549973 -209.33885254 64.85291351 -209.35205078 63.72721863 C-209.31138914 57.81013827 -209.0546901 53.95598157 -204.84326172 49.42407227 C-199.59225991 44.89271764 -193.30456848 43.59642998 -186.74316406 41.85571289 C-185.52549347 41.52327576 -184.30782288 41.19083862 -183.05325317 40.84832764 C-179.71453286 39.93709002 -176.37228294 39.03948186 -173.02924681 38.14422798 C-169.48156747 37.19160354 -165.93735242 36.22625558 -162.39273071 35.2623291 C-155.63368138 33.42630709 -148.87166224 31.60148183 -142.10848677 29.780725 C-133.84954283 27.55672343 -125.59440568 25.31872487 -117.33935547 23.08032227 C-108.61135718 20.713799 -99.88272758 18.34975557 -91.15032959 15.99951172 C-88.33533555 15.24156305 -85.52041207 14.48335305 -82.70556641 13.72485352 C-82.02267532 13.54084299 -81.33978423 13.35683247 -80.63619947 13.16724586 C-71.46787844 10.69480572 -62.31590806 8.16876068 -53.17626953 5.59204102 C-51.12561368 5.01767814 -49.07488598 4.44357175 -47.02407837 3.86975098 C-43.3649696 2.84591188 -39.71194337 1.8035538 -36.06161499 0.74890137 C-34.45341385 0.29801478 -32.8449989 -0.1521102 -31.23632812 -0.60131836 C-30.21158575 -0.90683372 -30.21158575 -0.90683372 -29.16614151 -1.21852112 C-19.24092061 -3.9361737 -9.75438553 -2.77383825 0 0 Z M-23.09960938 31.78735352 C-24.22007156 32.09115936 -25.34053375 32.39496521 -26.49494934 32.70797729 C-27.73653305 33.04741364 -28.97811676 33.38684998 -30.25732422 33.73657227 C-31.58394115 34.0973119 -32.91061822 34.45783043 -34.23735046 34.81814575 C-37.88293181 35.80894681 -41.52763037 36.80295994 -45.17215347 37.79764557 C-49.02069885 38.84760982 -52.8698872 39.89521191 -56.71899414 40.94311523 C-61.67546503 42.29272997 -66.63179336 43.6428643 -71.5877533 44.99435425 C-83.02080434 48.11200948 -94.45618585 51.22098587 -105.89294434 54.32501221 C-112.99363188 56.25228735 -120.09360977 58.1821702 -127.19337845 60.1128273 C-132.17702399 61.46795841 -137.16095787 62.82200798 -142.14556885 64.17358398 C-146.86849358 65.4543124 -151.59052605 66.73827931 -156.31189919 68.02471542 C-158.06484845 68.50173386 -159.81811978 68.97757046 -161.57172203 69.45218277 C-163.96949093 70.10132475 -166.36609864 70.75458767 -168.76245117 71.40893555 C-169.47189692 71.59994843 -170.18134266 71.7909613 -170.91228676 71.98776245 C-174.14575201 72.68878353 -174.14575201 72.68878353 -176.84326172 74.42407227 C-176.94307063 76.69458708 -176.9712614 78.96825974 -176.97265625 81.2409668 C-176.97440857 81.95519302 -176.97616089 82.66941925 -176.97796631 83.4052887 C-176.98239766 85.7891782 -176.97943562 88.17299436 -176.97607422 90.55688477 C-176.97674851 92.22671523 -176.97771959 93.8965456 -176.97897339 95.56637573 C-176.98045337 99.08893761 -176.97829217 102.61147425 -176.97363281 106.1340332 C-176.96803075 110.57957121 -176.97125094 115.02504818 -176.97706604 119.47058392 C-177.28542503 152.99158855 -177.28542503 152.99158855 -174.59326172 186.36157227 C-174.46540283 187.33771484 -174.33754395 188.31385742 -174.20581055 189.31958008 C-171.7091871 207.42263285 -167.60988434 225.09046174 -161.84326172 242.42407227 C-161.42052979 243.71015381 -161.42052979 243.71015381 -160.98925781 245.0222168 C-144.19555993 295.45894942 -111.45657933 344.98706931 -68.84326172 377.42407227 C-67.55974791 378.43457064 -66.27727966 379.44639786 -64.99560547 380.45922852 C-55.31068271 388.05676716 -45.34206186 395.0003691 -34.84326172 401.42407227 C-34.1159082 401.87395508 -33.38855469 402.32383789 -32.63916016 402.78735352 C-30.49049219 404.10522852 -28.32739867 405.39447035 -26.15576172 406.67407227 C-25.50857178 407.06949219 -24.86138184 407.46491211 -24.19458008 407.87231445 C-21.35962584 409.49653408 -19.22856924 410.41888643 -15.94091797 410.46313477 C-11.61243442 409.01120964 -7.87931816 406.88339722 -3.96826172 404.54907227 C-3.13472168 404.05802002 -2.30118164 403.56696777 -1.44238281 403.06103516 C27.71671926 385.67036704 55.27331825 363.29584142 76.15673828 336.42407227 C77.068778 335.3210542 77.98437659 334.22097262 78.90283203 333.12329102 C92.56877977 316.67324712 103.45558374 298.44283915 113.15673828 279.42407227 C113.55844238 278.63693848 113.96014648 277.84980469 114.37402344 277.03881836 C140.11539195 225.58898466 143.37012355 170.55508787 143.22540283 114.1505127 C143.21500618 109.65771972 143.21057091 105.16492078 143.20556641 100.67211914 C143.19497589 91.92275424 143.17800487 83.17341772 143.15673828 74.42407227 C136.47493157 71.76402715 129.69723949 69.83073306 122.75585938 67.96582031 C121.531819 67.63364502 120.30777863 67.30146973 119.04664612 66.95922852 C115.70576817 66.05268367 112.36362386 65.15089247 109.02122831 64.24996161 C105.49537276 63.29867799 101.97073063 62.34291918 98.44595337 61.38764954 C91.75485261 59.57496926 85.06270196 57.7661974 78.37015212 55.95887548 C70.09759639 53.72467611 61.82637895 51.4855383 53.55517578 49.24633789 C45.07453921 46.95058536 36.59378577 44.65527134 28.1121521 42.36320496 C26.80437003 42.00972476 25.49658818 41.6562438 24.18880653 41.30276203 C21.68148644 40.62516566 19.17409214 39.94784382 16.66661644 39.27082348 C10.93059402 37.72085368 5.19693952 36.16314108 -0.53143311 34.58511353 C-1.56126501 34.30191915 -2.59109692 34.01872477 -3.65213585 33.72694874 C-5.56144819 33.20115255 -7.47018052 32.67324377 -9.37821388 32.14282513 C-10.20814543 31.91436303 -11.03807697 31.68590094 -11.89315796 31.45051575 C-12.97273301 31.15114719 -12.97273301 31.15114719 -14.07411766 30.84573078 C-17.3837835 30.05690368 -19.86034225 30.90526023 -23.09960938 31.78735352 Z " fill="#000000" transform="translate(272.84326171875,34.575927734375)"/>
<path d="M0 0 C4.8846525 2.26787438 7.73212562 5.1153475 10 10 C11.00734149 17.48310824 10.47831723 21.84675961 6 28 C4.2360253 29.94076177 2.46991121 31.80093539 0.6105957 33.64337158 C0.07913846 34.17794881 -0.45231878 34.71252603 -0.99988079 35.26330256 C-2.76994943 37.0413057 -4.54702889 38.81212483 -6.32421875 40.58300781 C-7.5995052 41.86100607 -8.87436616 43.13942903 -10.14883423 44.41824341 C-13.60276589 47.8812768 -17.06297471 51.33797323 -20.5246315 54.79328251 C-24.14791783 58.4114996 -27.76631549 62.03460032 -31.38549805 65.65692139 C-37.46141298 71.73647233 -43.5415272 77.81179967 -49.62402344 83.88476562 C-56.65784945 90.90769802 -63.6844283 97.9378196 -70.70730495 104.97169995 C-76.73853822 111.01200479 -82.77365478 117.04840886 -88.81204319 123.08156085 C-92.41806231 126.68446083 -96.02271382 130.28870115 -99.62387085 133.89646149 C-103.00759574 137.28595763 -106.39616417 140.67053532 -109.78855515 144.05135727 C-111.03351653 145.29367133 -112.27677387 146.53769573 -113.51820755 147.783535 C-115.21109285 149.48187393 -116.90999953 151.17395036 -118.6105957 152.86456299 C-119.10203914 153.36046787 -119.59348257 153.85637274 -120.09981823 154.36730504 C-124.58061065 158.79710996 -127.5840067 160.29496192 -133.875 160.375 C-134.88304687 160.40335938 -135.89109375 160.43171875 -136.9296875 160.4609375 C-143.57120449 159.46386497 -148.15844683 154.1314321 -152.70800781 149.55078125 C-153.34940704 148.91288666 -153.99080627 148.27499207 -154.65164185 147.61776733 C-156.75717413 145.52099326 -158.85535832 143.41704121 -160.953125 141.3125 C-162.41920241 139.8477706 -163.88557654 138.38333814 -165.35223389 136.91918945 C-168.41842369 133.85594263 -171.48098074 130.78912149 -174.54101562 127.71972656 C-178.46400808 123.78531998 -182.39593784 119.85998705 -186.330616 115.93727112 C-189.35735839 112.91775238 -192.37932527 109.89349051 -195.3998642 106.86776733 C-196.84808286 105.41821463 -198.29778835 103.97014582 -199.74900055 102.52359009 C-201.77406827 100.50359799 -203.79261991 98.47731164 -205.80957031 96.44921875 C-206.41010223 95.85273529 -207.01063416 95.25625183 -207.62936401 94.64169312 C-212.25107245 89.97254344 -214.28904393 86.88114702 -214.375 80.125 C-214.27363418 74.91733093 -213.69948398 71.89419367 -210 68 C-205.35351746 63.58584159 -201.11206934 63.53241739 -195 63.46875 C-188.97220736 64.53617161 -184.8288918 68.92320327 -180.63720703 73.13574219 C-179.88974464 73.88276649 -179.88974464 73.88276649 -179.12718201 74.6448822 C-177.49926617 76.27417916 -175.87852925 77.91041946 -174.2578125 79.546875 C-173.12339395 80.68502801 -171.98852982 81.82273707 -170.85324097 82.96002197 C-167.87982086 85.94104439 -164.91245863 88.92802567 -161.9463501 91.9163208 C-158.91320656 94.96999633 -155.87432768 98.01795265 -152.8359375 101.06640625 C-146.88502127 107.03871232 -140.94049747 113.01733065 -135 119 C-131.31673478 117.45418292 -128.98297507 115.22486008 -126.18005371 112.40710449 C-125.70984975 111.93719825 -125.2396458 111.46729201 -124.75519323 110.98314619 C-123.18291476 109.40948024 -121.6178985 107.8287865 -120.05273438 106.24804688 C-118.92608898 105.11756267 -117.79898701 103.98753332 -116.67146301 102.85792542 C-114.24536748 100.42550904 -111.82241399 97.99002016 -109.40180969 95.55213928 C-105.57490118 91.69819573 -101.74038469 87.85188332 -97.90466309 84.00671387 C-89.76385384 75.84369991 -81.63150485 67.6722809 -73.5 59.5 C-64.72169472 50.67767523 -55.94197467 41.856788 -47.15246248 33.04562616 C-43.33892484 29.22211615 -39.53031928 25.39377987 -35.7253952 21.56169891 C-33.35853702 19.17993355 -30.98755301 16.80230861 -28.6154232 14.4257946 C-27.51556093 13.32218477 -26.41743073 12.21684565 -25.32116127 11.10966682 C-23.82533727 9.59942727 -22.3234684 8.09546563 -20.81994629 6.59289551 C-19.98077919 5.74928719 -19.14161209 4.90567886 -18.27701569 4.03650665 C-12.76134856 -0.89656995 -7.14258171 -0.7659605 0 0 Z " fill="#000000" transform="translate(358,160)"/>
</svg>
